inDegrees=yes
name=ik_S49_A12_T02
DataType=double
version=3
OpenSimVersion=4.3-2021-08-27-4bc7ad9
endheader
time	pelvis_tilt	pelvis_list	pelvis_rotation	pelvis_tx	pelvis_ty	pelvis_tz	hip_flexion_r	hip_adduction_r	hip_rotation_r	knee_angle_r	knee_angle_r_beta	ankle_angle_r	subtalar_angle_r	mtp_angle_r	hip_flexion_l	hip_adduction_l	hip_rotation_l	knee_angle_l	knee_angle_l_beta	ankle_angle_l	subtalar_angle_l	mtp_angle_l	lumbar_extension	lumbar_bending	lumbar_rotation	arm_flex_r	arm_add_r	arm_rot_r	elbow_flex_r	pro_sup_r	wrist_flex_r	wrist_dev_r	arm_flex_l	arm_add_l	arm_rot_l	elbow_flex_l	pro_sup_l	wrist_flex_l	wrist_dev_l
12.67999999999982	-1.330719677554645	1.501001487922217	38.03341711486114	0	0.9399999999999999	0	34.64692596026667	-9.718228532570222	-9.261367579529821	39.32106484467288	0.6862820469297344	0	0	0	34.64692596026667	-9.718228532570222	-9.261367579529821	39.32106484467288	0.6862820469297344	0	0	0	-0.1925104564103821	1.580945282375773	5.521879313663169	0.06536377024459841	-3.660925209008545	-0.6200521118464327	5.280172852478538	96.4055720475673	0	0	69.33874765942177	-23.83426965546895	5.027114288763394	38.24720638474734	51.10058466554603	0	0
12.69999999999982	-1.297173498808428	1.426794961061242	38.36166226009075	0	0.9399999999999999	0	34.65207212143915	-9.718707960212049	-9.262174253234503	39.32650188966185	0.6863769412663709	0	0	0	34.65207212143915	-9.718707960212049	-9.262174253234503	39.32650188966185	0.6863769412663709	0	0	0	-0.2070752994865342	1.493794224786425	5.353554777643834	0.07858999675804632	-3.556198114226359	-0.6338771089357055	5.295694230965944	96.34241412112117	0	0	65.55099601057992	-24.02319132812805	3.545876345787446	38.93044214916598	52.98391480818023	0	0
12.71999999999982	-1.246179293577935	1.353224929887836	38.51922860023897	0	0.9399999999999999	0	34.65783144773831	-9.71923761512037	-9.263069617011315	39.33265306869168	0.6864842995933211	0	0	0	34.65783144773831	-9.71923761512037	-9.263069617011315	39.33265306869168	0.6864842995933211	0	0	0	-0.2136176429811052	1.401361805286238	5.361231062936879	0.09436979601144353	-3.38105902101338	-0.795882016587231	5.325364447201794	96.329000353849	0	0	65.5690624119992	-23.49363712478979	3.711704687377112	35.58070397404146	55.72758806022857	0	0
12.73999999999982	-1.226791791001697	1.334093078439702	38.73099570614358	0	0.9399999999999999	0	34.67242816241016	-9.72059199208099	-9.265353985309257	39.34805553509957	0.6867531233450667	0	0	0	34.67242816241016	-9.72059199208099	-9.265353985309257	39.34805553509957	0.6867531233450667	0	0	0	-0.2075390606531949	1.361986115309265	5.226576442905445	-0.04662530468171742	-3.38328013306343	-0.6226858097612019	5.400470502255764	96.22128295474536	0	0	61.58012247377723	-23.38805435021905	2.692601379838067	35.53213766970573	58.43852897668084	0	0
12.75999999999982	-1.222264102616963	1.334311284405704	38.7134998475271	0	0.9399999999999999	0	34.67808829812603	-9.721109957042634	-9.26623177752078	39.35410513543728	0.6868587087893895	0	0	0	34.67808829812603	-9.721109957042634	-9.26623177752078	39.35410513543728	0.6868587087893895	0	0	0	-0.2034857102568501	1.358217810914919	5.242708639821088	-0.1116546987945424	-3.403873343925017	-0.6305762226798222	5.40148392109743	96.25977077790769	0	0	61.43671819034753	-22.8902640331708	2.477381489570236	31.29827819089675	61.92613305330036	0	0
12.77999999999982	-1.236874478706086	1.329943170947551	38.75441497682094	0	0.9399999999999999	0	34.81890000625524	-9.730013129812079	-9.283660690573335	39.54627329286338	0.6902126758539656	0	0	0	34.81890000625524	-9.730013129812079	-9.283660690573335	39.54627329286338	0.6902126758539656	0	0	0	-0.2106519795742545	1.365496298513266	5.199825095936569	-0.1266162970836831	-3.466966720159791	-0.7513453947583807	5.375542489671149	96.38345277665626	0	0	53.20980020861075	-22.78835150644855	1.696346931722804	34.71931343904169	63.72628603482388	0	0
12.79999999999982	-1.15307654332478	1.178432118288401	38.86631893160519	0	0.9399999999999999	0	34.83157498649162	-9.731163179859976	-9.285621013347615	39.55965838920785	0.6904462898558733	0	0	0	34.83157498649162	-9.731163179859976	-9.285621013347615	39.55965838920785	0.6904462898558733	0	0	0	-0.2402844449779598	1.193902151521142	5.416118396870568	-0.1046117291239085	-3.17461967489628	-1.128641336874012	5.370371863724428	96.4437020275174	0	0	49.48488673039203	-22.16503160447648	2.379256906111906	33.9397105031011	66.15682531077088	0	0
